<svg xmlns="http://www.w3.org/2000/svg" xmlns:xlink="http://www.w3.org/1999/xlink" width="500" zoomAndPan="magnify" viewBox="0 0 375 374.999991" height="500" preserveAspectRatio="xMidYMid meet" version="1.0"><path fill="#ee4b1f" d="M 168.257812 374.023438 C 174.589844 374.671875 181.019531 375.003906 187.523438 375.003906 C 194.027344 375.003906 200.457031 374.671875 206.789062 374.023438 L 206.789062 132.40625 L 168.257812 155.386719 L 168.257812 374.023438 " fill-opacity="1" fill-rule="nonzero"/><path fill="#ee4b1f" d="M 375.027344 187.5 C 375.027344 83.941406 291.078125 -0.00390625 187.523438 -0.00390625 C 83.964844 -0.00390625 0.0195312 83.941406 0.0195312 187.5 C 0.0195312 259.777344 40.917969 322.496094 100.832031 353.796875 C 101.257812 354.019531 101.6875 354.242188 102.117188 354.464844 C 102.601562 354.710938 103.089844 354.960938 103.578125 355.203125 C 104.007812 355.417969 104.4375 355.632812 104.871094 355.84375 C 105.347656 356.082031 105.828125 356.316406 106.308594 356.550781 C 107.109375 356.933594 107.910156 357.3125 108.71875 357.683594 C 109.1875 357.90625 109.664062 358.117188 110.140625 358.332031 C 110.597656 358.542969 111.054688 358.75 111.515625 358.953125 C 112 359.171875 112.484375 359.382812 112.972656 359.59375 C 113.449219 359.800781 113.921875 360.003906 114.402344 360.203125 C 114.863281 360.402344 115.324219 360.601562 115.789062 360.792969 C 116.628906 361.136719 117.46875 361.476562 118.3125 361.8125 C 118.449219 361.867188 118.582031 361.925781 118.71875 361.980469 L 118.71875 361.972656 C 124.984375 364.445312 131.410156 366.59375 137.984375 368.390625 L 137.984375 202.59375 L 99.453125 225.574219 L 99.453125 318.496094 C 57.371094 290.144531 29.6875 242.054688 29.6875 187.5 C 29.6875 100.328125 100.351562 29.664062 187.523438 29.664062 C 274.695312 29.664062 345.359375 100.328125 345.359375 187.5 C 345.359375 242.054688 317.675781 290.140625 275.589844 318.492188 L 275.589844 104.15625 L 237.0625 81.175781 L 237.0625 368.390625 C 240.972656 367.320312 244.824219 366.128906 248.625 364.816406 L 248.625 364.820312 C 248.714844 364.789062 248.808594 364.753906 248.894531 364.722656 C 250.996094 363.996094 253.078125 363.234375 255.144531 362.433594 C 255.378906 362.34375 255.613281 362.25 255.855469 362.15625 C 256.738281 361.8125 257.613281 361.460938 258.488281 361.105469 C 258.644531 361.039062 258.800781 360.976562 258.957031 360.914062 C 259.976562 360.496094 260.988281 360.0625 262 359.625 C 262.1875 359.546875 262.371094 359.460938 262.558594 359.378906 C 263.394531 359.015625 264.222656 358.648438 265.050781 358.269531 C 265.289062 358.160156 265.527344 358.054688 265.765625 357.945312 C 267.75 357.035156 269.707031 356.085938 271.652344 355.113281 C 271.894531 354.988281 272.140625 354.863281 272.386719 354.742188 C 273.191406 354.332031 273.996094 353.914062 274.792969 353.496094 C 274.96875 353.398438 275.144531 353.308594 275.320312 353.21875 C 275.410156 353.167969 275.503906 353.121094 275.589844 353.078125 L 275.589844 353.070312 C 334.757812 321.535156 375.027344 259.222656 375.027344 187.5 " fill-opacity="1" fill-rule="nonzero"/></svg>