<svg width="150" height="50" viewBox="0 0 150 50" fill="none" xmlns="http://www.w3.org/2000/svg">
<mask id="mask0_413_433" style="mask-type:luminance" maskUnits="userSpaceOnUse" x="21" y="17" width="7" height="33">
<path d="M21.7007 17.6327H27.4795V50H21.7007V17.6327Z" fill="white"/>
</mask>
<g mask="url(#mask0_413_433)">
<path d="M22.1387 49.8715C22.9722 49.9578 23.8178 50.0017 24.6721 50.0017C25.5282 50.0017 26.3755 49.9578 27.209 49.8715V17.6555L22.1387 20.7189V49.8715Z" fill="white"/>
</g>
<mask id="mask1_413_433" style="mask-type:luminance" maskUnits="userSpaceOnUse" x="0" y="0" width="50" height="50">
<path d="M0 0H49.3421V49.1642H0V0Z" fill="white"/>
</mask>
<g mask="url(#mask1_413_433)">
<path d="M49.3453 25C49.3453 11.1926 38.2982 0 24.6725 0C11.0468 0 0.00146484 11.1926 0.00146484 25C0.00146484 34.6372 5.38263 43.0004 13.266 47.1741C13.3233 47.204 13.3788 47.234 13.4361 47.2621C13.4987 47.2955 13.5629 47.329 13.6289 47.3607C13.6845 47.3906 13.7418 47.4187 13.7973 47.4469C13.8616 47.4785 13.9241 47.5102 13.9866 47.5401C14.0925 47.5912 14.1984 47.6422 14.3044 47.6915C14.3669 47.7214 14.4294 47.7495 14.4919 47.7794C14.5509 47.8058 14.6117 47.834 14.6725 47.8621C14.7367 47.8903 14.7992 47.9184 14.8635 47.9466C14.926 47.9747 14.9885 48.0011 15.0528 48.0275C15.1135 48.0539 15.1743 48.0803 15.2351 48.1067C15.3445 48.1525 15.4556 48.1982 15.5667 48.2422C15.5841 48.2492 15.6015 48.258 15.6206 48.2651V48.2633C16.4436 48.5941 17.2893 48.8809 18.1557 49.1202V27.013L13.0854 30.0781V42.4673C7.54795 38.6877 3.90494 32.2758 3.90494 25C3.90494 13.378 13.2035 3.95552 24.6725 3.95552C36.1433 3.95552 45.4418 13.378 45.4418 25C45.4418 32.2758 41.7988 38.686 36.2614 42.4655V13.8883L31.191 10.8249V49.1202C31.7068 48.9759 32.2138 48.8176 32.7139 48.6434C32.7243 48.6399 32.7365 48.6346 32.7486 48.6311C33.0247 48.5343 33.2991 48.4322 33.5717 48.3249C33.6012 48.3126 33.6324 48.3003 33.6637 48.2879C33.78 48.2422 33.8964 48.1947 34.011 48.1489C34.0318 48.1401 34.0527 48.1313 34.0718 48.1225C34.2072 48.0662 34.3392 48.0099 34.4729 47.9519C34.4972 47.9413 34.5215 47.929 34.5475 47.9184C34.6569 47.8692 34.7646 47.8199 34.874 47.7706C34.9052 47.7548 34.9365 47.7407 34.9678 47.7266C35.23 47.6052 35.4869 47.4785 35.7422 47.3483C35.7752 47.3325 35.8064 47.3167 35.8394 47.2991C35.9454 47.2445 36.0513 47.19 36.1572 47.1337C36.1798 47.1213 36.2023 47.109 36.2249 47.0967C36.2371 47.0897 36.2492 47.0844 36.2614 47.0774C44.0458 42.872 49.3453 34.5633 49.3453 25Z" fill="white"/>
</g>
<path d="M66.0744 19L63.6104 14.648H62.5544V19H60.3144V7.832H64.5064C65.3704 7.832 66.1064 7.98667 66.7144 8.296C67.3224 8.59467 67.7758 9.00533 68.0744 9.528C68.3838 10.04 68.5384 10.616 68.5384 11.256C68.5384 11.992 68.3251 12.6587 67.8984 13.256C67.4718 13.8427 66.8371 14.248 65.9944 14.472L68.6664 19H66.0744ZM62.5544 12.968H64.4264C65.0344 12.968 65.4878 12.824 65.7864 12.536C66.0851 12.2373 66.2344 11.8267 66.2344 11.304C66.2344 10.792 66.0851 10.3973 65.7864 10.12C65.4878 9.832 65.0344 9.688 64.4264 9.688H62.5544V12.968ZM74.5004 19.144C73.6471 19.144 72.8791 18.9573 72.1964 18.584C71.5138 18.2 70.9751 17.6613 70.5804 16.968C70.1964 16.2747 70.0044 15.4747 70.0044 14.568C70.0044 13.6613 70.2018 12.8613 70.5964 12.168C71.0018 11.4747 71.5511 10.9413 72.2444 10.568C72.9378 10.184 73.7111 9.992 74.5644 9.992C75.4178 9.992 76.1911 10.184 76.8844 10.568C77.5778 10.9413 78.1218 11.4747 78.5164 12.168C78.9218 12.8613 79.1244 13.6613 79.1244 14.568C79.1244 15.4747 78.9164 16.2747 78.5004 16.968C78.0951 17.6613 77.5404 18.2 76.8364 18.584C76.1431 18.9573 75.3644 19.144 74.5004 19.144ZM74.5004 17.192C74.9058 17.192 75.2844 17.096 75.6364 16.904C75.9991 16.7013 76.2871 16.4027 76.5004 16.008C76.7138 15.6133 76.8204 15.1333 76.8204 14.568C76.8204 13.7253 76.5964 13.08 76.1484 12.632C75.7111 12.1733 75.1724 11.944 74.5324 11.944C73.8924 11.944 73.3538 12.1733 72.9164 12.632C72.4898 13.08 72.2764 13.7253 72.2764 14.568C72.2764 15.4107 72.4844 16.0613 72.9004 16.52C73.3271 16.968 73.8604 17.192 74.5004 17.192ZM83.3756 11.976V16.264C83.3756 16.5627 83.4449 16.7813 83.5836 16.92C83.7329 17.048 83.9782 17.112 84.3196 17.112H85.3596V19H83.9516C82.0636 19 81.1196 18.0827 81.1196 16.248V11.976H80.0636V10.136H81.1196V7.944H83.3756V10.136H85.3596V11.976H83.3756ZM88.1067 9.08C87.712 9.08 87.3814 8.95733 87.1147 8.712C86.8587 8.456 86.7307 8.14133 86.7307 7.768C86.7307 7.39467 86.8587 7.08533 87.1147 6.84C87.3814 6.584 87.712 6.456 88.1067 6.456C88.5014 6.456 88.8267 6.584 89.0827 6.84C89.3494 7.08533 89.4827 7.39467 89.4827 7.768C89.4827 8.14133 89.3494 8.456 89.0827 8.712C88.8267 8.95733 88.5014 9.08 88.1067 9.08ZM89.2107 10.136V19H86.9707V10.136H89.2107ZM96.3358 10.008C97.3918 10.008 98.2452 10.344 98.8958 11.016C99.5465 11.6773 99.8718 12.6053 99.8718 13.8V19H97.6318V14.104C97.6318 13.4 97.4558 12.8613 97.1038 12.488C96.7518 12.104 96.2718 11.912 95.6638 11.912C95.0452 11.912 94.5545 12.104 94.1918 12.488C93.8398 12.8613 93.6638 13.4 93.6638 14.104V19H91.4238V10.136H93.6638V11.24C93.9625 10.856 94.3412 10.5573 94.7998 10.344C95.2692 10.12 95.7812 10.008 96.3358 10.008ZM101.426 14.536C101.426 13.64 101.602 12.8453 101.954 12.152C102.317 11.4587 102.802 10.9253 103.41 10.552C104.029 10.1787 104.717 9.992 105.474 9.992C106.135 9.992 106.711 10.1253 107.202 10.392C107.703 10.6587 108.103 10.9947 108.402 11.4V10.136H110.658V19H108.402V17.704C108.114 18.12 107.714 18.4667 107.202 18.744C106.701 19.0107 106.119 19.144 105.458 19.144C104.711 19.144 104.029 18.952 103.41 18.568C102.802 18.184 102.317 17.6453 101.954 16.952C101.602 16.248 101.426 15.4427 101.426 14.536ZM108.402 14.568C108.402 14.024 108.295 13.56 108.082 13.176C107.869 12.7813 107.581 12.4827 107.218 12.28C106.855 12.0667 106.466 11.96 106.05 11.96C105.634 11.96 105.25 12.0613 104.898 12.264C104.546 12.4667 104.258 12.7653 104.034 13.16C103.821 13.544 103.714 14.0027 103.714 14.536C103.714 15.0693 103.821 15.5387 104.034 15.944C104.258 16.3387 104.546 16.6427 104.898 16.856C105.261 17.0693 105.645 17.176 106.05 17.176C106.466 17.176 106.855 17.0747 107.218 16.872C107.581 16.6587 107.869 16.36 108.082 15.976C108.295 15.5813 108.402 15.112 108.402 14.568ZM72.4904 31.832V43H70.2505V35.736L67.2584 43H65.5624L62.5544 35.736V43H60.3144V31.832H62.8584L66.4104 40.136L69.9625 31.832H72.4904ZM78.6411 43.144C77.7877 43.144 77.0197 42.9573 76.3371 42.584C75.6544 42.2 75.1157 41.6613 74.7211 40.968C74.3371 40.2747 74.1451 39.4747 74.1451 38.568C74.1451 37.6613 74.3424 36.8613 74.7371 36.168C75.1424 35.4747 75.6917 34.9413 76.3851 34.568C77.0784 34.184 77.8517 33.992 78.7051 33.992C79.5584 33.992 80.3317 34.184 81.0251 34.568C81.7184 34.9413 82.2624 35.4747 82.6571 36.168C83.0624 36.8613 83.2651 37.6613 83.2651 38.568C83.2651 39.4747 83.0571 40.2747 82.6411 40.968C82.2357 41.6613 81.6811 42.2 80.9771 42.584C80.2837 42.9573 79.5051 43.144 78.6411 43.144ZM78.6411 41.192C79.0464 41.192 79.4251 41.096 79.7771 40.904C80.1397 40.7013 80.4277 40.4027 80.6411 40.008C80.8544 39.6133 80.9611 39.1333 80.9611 38.568C80.9611 37.7253 80.7371 37.08 80.2891 36.632C79.8517 36.1733 79.3131 35.944 78.6731 35.944C78.0331 35.944 77.4944 36.1733 77.0571 36.632C76.6304 37.08 76.4171 37.7253 76.4171 38.568C76.4171 39.4107 76.6251 40.0613 77.0411 40.52C77.4677 40.968 78.0011 41.192 78.6411 41.192ZM89.8202 34.008C90.8762 34.008 91.7295 34.344 92.3802 35.016C93.0309 35.6773 93.3562 36.6053 93.3562 37.8V43H91.1162V38.104C91.1162 37.4 90.9402 36.8613 90.5882 36.488C90.2362 36.104 89.7562 35.912 89.1482 35.912C88.5295 35.912 88.0389 36.104 87.6762 36.488C87.3242 36.8613 87.1482 37.4 87.1482 38.104V43H84.9082V34.136H87.1482V35.24C87.4469 34.856 87.8255 34.5573 88.2842 34.344C88.7535 34.12 89.2655 34.008 89.8202 34.008ZM103.726 38.376C103.726 38.696 103.705 38.984 103.662 39.24H97.1823C97.2357 39.88 97.4597 40.3813 97.8543 40.744C98.249 41.1067 98.7343 41.288 99.3103 41.288C100.142 41.288 100.734 40.9307 101.086 40.216H103.502C103.246 41.0693 102.756 41.7733 102.03 42.328C101.305 42.872 100.414 43.144 99.3583 43.144C98.505 43.144 97.737 42.9573 97.0543 42.584C96.3823 42.2 95.8543 41.6613 95.4703 40.968C95.097 40.2747 94.9103 39.4747 94.9103 38.568C94.9103 37.6507 95.097 36.8453 95.4703 36.152C95.8437 35.4587 96.3663 34.9253 97.0383 34.552C97.7103 34.1787 98.4837 33.992 99.3583 33.992C100.201 33.992 100.953 34.1733 101.614 34.536C102.286 34.8987 102.804 35.416 103.166 36.088C103.54 36.7493 103.726 37.512 103.726 38.376ZM101.406 37.736C101.396 37.16 101.188 36.7013 100.782 36.36C100.377 36.008 99.881 35.832 99.2943 35.832C98.7397 35.832 98.2703 36.0027 97.8863 36.344C97.513 36.6747 97.2837 37.1387 97.1983 37.736H101.406ZM107.969 35.976V40.264C107.969 40.5627 108.039 40.7813 108.177 40.92C108.327 41.048 108.572 41.112 108.913 41.112H109.953V43H108.545C106.657 43 105.713 42.0827 105.713 40.248V35.976H104.657V34.136H105.713V31.944H107.969V34.136H109.953V35.976H107.969ZM110.988 38.536C110.988 37.64 111.164 36.8453 111.516 36.152C111.879 35.4587 112.364 34.9253 112.972 34.552C113.591 34.1787 114.279 33.992 115.036 33.992C115.698 33.992 116.274 34.1253 116.764 34.392C117.266 34.6587 117.666 34.9947 117.964 35.4V34.136H120.22V43H117.964V41.704C117.676 42.12 117.276 42.4667 116.764 42.744C116.263 43.0107 115.682 43.144 115.02 43.144C114.274 43.144 113.591 42.952 112.972 42.568C112.364 42.184 111.879 41.6453 111.516 40.952C111.164 40.248 110.988 39.4427 110.988 38.536ZM117.964 38.568C117.964 38.024 117.858 37.56 117.644 37.176C117.431 36.7813 117.143 36.4827 116.78 36.28C116.418 36.0667 116.028 35.96 115.612 35.96C115.196 35.96 114.812 36.0613 114.46 36.264C114.108 36.4667 113.82 36.7653 113.596 37.16C113.383 37.544 113.276 38.0027 113.276 38.536C113.276 39.0693 113.383 39.5387 113.596 39.944C113.82 40.3387 114.108 40.6427 114.46 40.856C114.823 41.0693 115.207 41.176 115.612 41.176C116.028 41.176 116.418 41.0747 116.78 40.872C117.143 40.6587 117.431 40.36 117.644 39.976C117.858 39.5813 117.964 39.112 117.964 38.568ZM117.66 31.832L113.98 33.512V31.912L117.66 30.008V31.832ZM124.648 35.512C124.936 35.0427 125.31 34.6747 125.768 34.408C126.238 34.1413 126.771 34.008 127.368 34.008V36.36H126.776C126.072 36.36 125.539 36.5253 125.176 36.856C124.824 37.1867 124.648 37.7627 124.648 38.584V43H122.408V34.136H124.648V35.512ZM130.013 33.08C129.618 33.08 129.288 32.9573 129.021 32.712C128.765 32.456 128.637 32.1413 128.637 31.768C128.637 31.3947 128.765 31.0853 129.021 30.84C129.288 30.584 129.618 30.456 130.013 30.456C130.408 30.456 130.733 30.584 130.989 30.84C131.256 31.0853 131.389 31.3947 131.389 31.768C131.389 32.1413 131.256 32.456 130.989 32.712C130.733 32.9573 130.408 33.08 130.013 33.08ZM131.117 34.136V43H128.877V34.136H131.117ZM132.754 38.536C132.754 37.64 132.93 36.8453 133.282 36.152C133.645 35.4587 134.13 34.9253 134.738 34.552C135.357 34.1787 136.045 33.992 136.802 33.992C137.463 33.992 138.039 34.1253 138.53 34.392C139.031 34.6587 139.431 34.9947 139.73 35.4V34.136H141.986V43H139.73V41.704C139.442 42.12 139.042 42.4667 138.53 42.744C138.029 43.0107 137.447 43.144 136.786 43.144C136.039 43.144 135.357 42.952 134.738 42.568C134.13 42.184 133.645 41.6453 133.282 40.952C132.93 40.248 132.754 39.4427 132.754 38.536ZM139.73 38.568C139.73 38.024 139.623 37.56 139.41 37.176C139.197 36.7813 138.909 36.4827 138.546 36.28C138.183 36.0667 137.794 35.96 137.378 35.96C136.962 35.96 136.578 36.0613 136.226 36.264C135.874 36.4667 135.586 36.7653 135.362 37.16C135.149 37.544 135.042 38.0027 135.042 38.536C135.042 39.0693 135.149 39.5387 135.362 39.944C135.586 40.3387 135.874 40.6427 136.226 40.856C136.589 41.0693 136.973 41.176 137.378 41.176C137.794 41.176 138.183 41.0747 138.546 40.872C138.909 40.6587 139.197 40.36 139.41 39.976C139.623 39.5813 139.73 39.112 139.73 38.568Z" fill="white"/>
</svg>
