<svg width="152" height="50" viewBox="0 0 152 50" fill="none" xmlns="http://www.w3.org/2000/svg">
<mask id="mask0_407_134" style="mask-type:luminance" maskUnits="userSpaceOnUse" x="21" y="17" width="7" height="33">
<path d="M21.9902 17.6327H27.8461V50H21.9902V17.6327Z" fill="white"/>
</mask>
<g mask="url(#mask0_407_134)">
<path d="M22.4341 49.8715C23.2787 49.9578 24.1356 50.0018 25.0013 50.0018C25.8688 50.0018 26.7274 49.9578 27.572 49.8715V17.6555L22.4341 20.7189V49.8715Z" fill="#EE4B1F"/>
</g>
<mask id="mask1_407_134" style="mask-type:luminance" maskUnits="userSpaceOnUse" x="0" y="0" width="50" height="50">
<path d="M0 0H50V49.1642H0V0Z" fill="white"/>
</mask>
<g mask="url(#mask1_407_134)">
<path d="M50.0032 25C50.0032 11.1926 38.8088 0 25.0015 0C11.1941 0 0.00146484 11.1926 0.00146484 25C0.00146484 34.6372 5.45438 43.0004 13.4428 47.1741C13.5009 47.204 13.5572 47.234 13.6153 47.2621C13.6786 47.2955 13.7437 47.329 13.8106 47.3607C13.8669 47.3906 13.925 47.4187 13.9813 47.4469C14.0464 47.4785 14.1097 47.5102 14.1731 47.5401C14.2804 47.5912 14.3877 47.6422 14.4951 47.6915C14.5584 47.7214 14.6217 47.7495 14.6851 47.7794C14.7449 47.8058 14.8065 47.834 14.8681 47.8621C14.9332 47.8903 14.9965 47.9184 15.0616 47.9466C15.125 47.9747 15.1883 48.0011 15.2534 48.0275C15.315 48.0539 15.3766 48.0803 15.4382 48.1067C15.549 48.1525 15.6617 48.1982 15.7743 48.2422C15.7919 48.2492 15.8095 48.258 15.8288 48.2651V48.2633C16.6629 48.5941 17.5198 48.8809 18.3978 49.1202V27.013L13.2598 30.0781V42.4673C7.64857 38.6877 3.95698 32.2758 3.95698 25C3.95698 13.378 13.3795 3.95552 25.0015 3.95552C36.6252 3.95552 46.0477 13.378 46.0477 25C46.0477 32.2758 42.3561 38.686 36.7449 42.4655V13.8883L31.6069 10.8249V49.1202C32.1295 48.9759 32.6433 48.8176 33.15 48.6434C33.1606 48.6399 33.1729 48.6346 33.1852 48.6311C33.465 48.5343 33.743 48.4322 34.0193 48.3249C34.0492 48.3126 34.0809 48.3003 34.1125 48.2879C34.2304 48.2422 34.3483 48.1947 34.4644 48.1489C34.4856 48.1401 34.5067 48.1313 34.526 48.1225C34.6633 48.0662 34.797 48.0099 34.9325 47.9519C34.9571 47.9413 34.9818 47.929 35.0082 47.9184C35.119 47.8692 35.2281 47.8199 35.339 47.7706C35.3706 47.7548 35.4023 47.7407 35.434 47.7266C35.6997 47.6052 35.9601 47.4785 36.2187 47.3483C36.2522 47.3325 36.2838 47.3167 36.3173 47.2991C36.4246 47.2445 36.5319 47.19 36.6393 47.1337C36.6622 47.1213 36.685 47.109 36.7079 47.0967C36.7202 47.0897 36.7325 47.0844 36.7449 47.0774C44.633 42.872 50.0032 34.5633 50.0032 25Z" fill="#EE4B1F"/>
</g>
<path d="M66.864 19L64.4 14.648H63.344V19H61.104V7.832H65.296C66.16 7.832 66.896 7.98667 67.504 8.296C68.112 8.59467 68.5653 9.00533 68.864 9.528C69.1733 10.04 69.328 10.616 69.328 11.256C69.328 11.992 69.1147 12.6587 68.688 13.256C68.2613 13.8427 67.6267 14.248 66.784 14.472L69.456 19H66.864ZM63.344 12.968H65.216C65.824 12.968 66.2773 12.824 66.576 12.536C66.8747 12.2373 67.024 11.8267 67.024 11.304C67.024 10.792 66.8747 10.3973 66.576 10.12C66.2773 9.832 65.824 9.688 65.216 9.688H63.344V12.968ZM75.29 19.144C74.4367 19.144 73.6687 18.9573 72.986 18.584C72.3033 18.2 71.7647 17.6613 71.37 16.968C70.986 16.2747 70.794 15.4747 70.794 14.568C70.794 13.6613 70.9913 12.8613 71.386 12.168C71.7913 11.4747 72.3407 10.9413 73.034 10.568C73.7273 10.184 74.5007 9.992 75.354 9.992C76.2073 9.992 76.9807 10.184 77.674 10.568C78.3673 10.9413 78.9113 11.4747 79.306 12.168C79.7113 12.8613 79.914 13.6613 79.914 14.568C79.914 15.4747 79.706 16.2747 79.29 16.968C78.8847 17.6613 78.33 18.2 77.626 18.584C76.9327 18.9573 76.154 19.144 75.29 19.144ZM75.29 17.192C75.6953 17.192 76.074 17.096 76.426 16.904C76.7887 16.7013 77.0767 16.4027 77.29 16.008C77.5033 15.6133 77.61 15.1333 77.61 14.568C77.61 13.7253 77.386 13.08 76.938 12.632C76.5007 12.1733 75.962 11.944 75.322 11.944C74.682 11.944 74.1433 12.1733 73.706 12.632C73.2793 13.08 73.066 13.7253 73.066 14.568C73.066 15.4107 73.274 16.0613 73.69 16.52C74.1167 16.968 74.65 17.192 75.29 17.192ZM84.1651 11.976V16.264C84.1651 16.5627 84.2345 16.7813 84.3731 16.92C84.5225 17.048 84.7678 17.112 85.1091 17.112H86.1491V19H84.7411C82.8531 19 81.9091 18.0827 81.9091 16.248V11.976H80.8531V10.136H81.9091V7.944H84.1651V10.136H86.1491V11.976H84.1651ZM88.8963 9.08C88.5016 9.08 88.1709 8.95733 87.9043 8.712C87.6483 8.456 87.5203 8.14133 87.5203 7.768C87.5203 7.39467 87.6483 7.08533 87.9043 6.84C88.1709 6.584 88.5016 6.456 88.8963 6.456C89.2909 6.456 89.6163 6.584 89.8723 6.84C90.1389 7.08533 90.2723 7.39467 90.2723 7.768C90.2723 8.14133 90.1389 8.456 89.8723 8.712C89.6163 8.95733 89.2909 9.08 88.8963 9.08ZM90.0003 10.136V19H87.7603V10.136H90.0003ZM97.1254 10.008C98.1814 10.008 99.0347 10.344 99.6854 11.016C100.336 11.6773 100.661 12.6053 100.661 13.8V19H98.4214V14.104C98.4214 13.4 98.2454 12.8613 97.8934 12.488C97.5414 12.104 97.0614 11.912 96.4534 11.912C95.8347 11.912 95.344 12.104 94.9814 12.488C94.6294 12.8613 94.4534 13.4 94.4534 14.104V19H92.2134V10.136H94.4534V11.24C94.752 10.856 95.1307 10.5573 95.5894 10.344C96.0587 10.12 96.5707 10.008 97.1254 10.008ZM102.215 14.536C102.215 13.64 102.391 12.8453 102.743 12.152C103.106 11.4587 103.592 10.9253 104.2 10.552C104.818 10.1787 105.506 9.992 106.264 9.992C106.925 9.992 107.501 10.1253 107.992 10.392C108.493 10.6587 108.893 10.9947 109.192 11.4V10.136H111.448V19H109.192V17.704C108.904 18.12 108.504 18.4667 107.992 18.744C107.49 19.0107 106.909 19.144 106.248 19.144C105.501 19.144 104.818 18.952 104.2 18.568C103.592 18.184 103.106 17.6453 102.743 16.952C102.391 16.248 102.215 15.4427 102.215 14.536ZM109.192 14.568C109.192 14.024 109.085 13.56 108.872 13.176C108.658 12.7813 108.37 12.4827 108.008 12.28C107.645 12.0667 107.256 11.96 106.84 11.96C106.424 11.96 106.04 12.0613 105.688 12.264C105.336 12.4667 105.048 12.7653 104.824 13.16C104.61 13.544 104.504 14.0027 104.504 14.536C104.504 15.0693 104.61 15.5387 104.824 15.944C105.048 16.3387 105.336 16.6427 105.688 16.856C106.05 17.0693 106.434 17.176 106.84 17.176C107.256 17.176 107.645 17.0747 108.008 16.872C108.37 16.6587 108.658 16.36 108.872 15.976C109.085 15.5813 109.192 15.112 109.192 14.568ZM73.28 31.832V43H71.04V35.736L68.048 43H66.352L63.344 35.736V43H61.104V31.832H63.648L67.2 40.136L70.752 31.832H73.28ZM79.4306 43.144C78.5773 43.144 77.8093 42.9573 77.1266 42.584C76.444 42.2 75.9053 41.6613 75.5106 40.968C75.1266 40.2747 74.9346 39.4747 74.9346 38.568C74.9346 37.6613 75.132 36.8613 75.5266 36.168C75.932 35.4747 76.4813 34.9413 77.1746 34.568C77.868 34.184 78.6413 33.992 79.4946 33.992C80.348 33.992 81.1213 34.184 81.8146 34.568C82.508 34.9413 83.052 35.4747 83.4466 36.168C83.852 36.8613 84.0546 37.6613 84.0546 38.568C84.0546 39.4747 83.8466 40.2747 83.4306 40.968C83.0253 41.6613 82.4706 42.2 81.7666 42.584C81.0733 42.9573 80.2946 43.144 79.4306 43.144ZM79.4306 41.192C79.836 41.192 80.2146 41.096 80.5666 40.904C80.9293 40.7013 81.2173 40.4027 81.4306 40.008C81.644 39.6133 81.7506 39.1333 81.7506 38.568C81.7506 37.7253 81.5266 37.08 81.0786 36.632C80.6413 36.1733 80.1026 35.944 79.4626 35.944C78.8226 35.944 78.284 36.1733 77.8466 36.632C77.42 37.08 77.2066 37.7253 77.2066 38.568C77.2066 39.4107 77.4146 40.0613 77.8306 40.52C78.2573 40.968 78.7906 41.192 79.4306 41.192ZM90.6098 34.008C91.6658 34.008 92.5191 34.344 93.1698 35.016C93.8204 35.6773 94.1458 36.6053 94.1458 37.8V43H91.9058V38.104C91.9058 37.4 91.7298 36.8613 91.3778 36.488C91.0258 36.104 90.5458 35.912 89.9378 35.912C89.3191 35.912 88.8284 36.104 88.4658 36.488C88.1138 36.8613 87.9378 37.4 87.9378 38.104V43H85.6978V34.136H87.9378V35.24C88.2364 34.856 88.6151 34.5573 89.0738 34.344C89.5431 34.12 90.0551 34.008 90.6098 34.008ZM104.516 38.376C104.516 38.696 104.495 38.984 104.452 39.24H97.9719C98.0252 39.88 98.2492 40.3813 98.6439 40.744C99.0385 41.1067 99.5239 41.288 100.1 41.288C100.932 41.288 101.524 40.9307 101.876 40.216H104.292C104.036 41.0693 103.545 41.7733 102.82 42.328C102.095 42.872 101.204 43.144 100.148 43.144C99.2945 43.144 98.5265 42.9573 97.8439 42.584C97.1719 42.2 96.6439 41.6613 96.2599 40.968C95.8865 40.2747 95.6999 39.4747 95.6999 38.568C95.6999 37.6507 95.8865 36.8453 96.2599 36.152C96.6332 35.4587 97.1559 34.9253 97.8279 34.552C98.4999 34.1787 99.2732 33.992 100.148 33.992C100.991 33.992 101.743 34.1733 102.404 34.536C103.076 34.8987 103.593 35.416 103.956 36.088C104.329 36.7493 104.516 37.512 104.516 38.376ZM102.196 37.736C102.185 37.16 101.977 36.7013 101.572 36.36C101.167 36.008 100.671 35.832 100.084 35.832C99.5292 35.832 99.0599 36.0027 98.6759 36.344C98.3025 36.6747 98.0732 37.1387 97.9879 37.736H102.196ZM108.759 35.976V40.264C108.759 40.5627 108.828 40.7813 108.967 40.92C109.116 41.048 109.362 41.112 109.703 41.112H110.743V43H109.335C107.447 43 106.503 42.0827 106.503 40.248V35.976H105.447V34.136H106.503V31.944H108.759V34.136H110.743V35.976H108.759ZM111.778 38.536C111.778 37.64 111.954 36.8453 112.306 36.152C112.669 35.4587 113.154 34.9253 113.762 34.552C114.381 34.1787 115.069 33.992 115.826 33.992C116.487 33.992 117.063 34.1253 117.554 34.392C118.055 34.6587 118.455 34.9947 118.754 35.4V34.136H121.01V43H118.754V41.704C118.466 42.12 118.066 42.4667 117.554 42.744C117.053 43.0107 116.471 43.144 115.81 43.144C115.063 43.144 114.381 42.952 113.762 42.568C113.154 42.184 112.669 41.6453 112.306 40.952C111.954 40.248 111.778 39.4427 111.778 38.536ZM118.754 38.568C118.754 38.024 118.647 37.56 118.434 37.176C118.221 36.7813 117.933 36.4827 117.57 36.28C117.207 36.0667 116.818 35.96 116.402 35.96C115.986 35.96 115.602 36.0613 115.25 36.264C114.898 36.4667 114.61 36.7653 114.386 37.16C114.173 37.544 114.066 38.0027 114.066 38.536C114.066 39.0693 114.173 39.5387 114.386 39.944C114.61 40.3387 114.898 40.6427 115.25 40.856C115.613 41.0693 115.997 41.176 116.402 41.176C116.818 41.176 117.207 41.0747 117.57 40.872C117.933 40.6587 118.221 40.36 118.434 39.976C118.647 39.5813 118.754 39.112 118.754 38.568ZM118.45 31.832L114.77 33.512V31.912L118.45 30.008V31.832ZM125.438 35.512C125.726 35.0427 126.099 34.6747 126.558 34.408C127.027 34.1413 127.56 34.008 128.158 34.008V36.36H127.566C126.862 36.36 126.328 36.5253 125.966 36.856C125.614 37.1867 125.438 37.7627 125.438 38.584V43H123.198V34.136H125.438V35.512ZM130.803 33.08C130.408 33.08 130.077 32.9573 129.811 32.712C129.555 32.456 129.427 32.1413 129.427 31.768C129.427 31.3947 129.555 31.0853 129.811 30.84C130.077 30.584 130.408 30.456 130.803 30.456C131.197 30.456 131.523 30.584 131.779 30.84C132.045 31.0853 132.179 31.3947 132.179 31.768C132.179 32.1413 132.045 32.456 131.779 32.712C131.523 32.9573 131.197 33.08 130.803 33.08ZM131.907 34.136V43H129.667V34.136H131.907ZM133.544 38.536C133.544 37.64 133.72 36.8453 134.072 36.152C134.434 35.4587 134.92 34.9253 135.528 34.552C136.146 34.1787 136.834 33.992 137.592 33.992C138.253 33.992 138.829 34.1253 139.32 34.392C139.821 34.6587 140.221 34.9947 140.52 35.4V34.136H142.776V43H140.52V41.704C140.232 42.12 139.832 42.4667 139.32 42.744C138.818 43.0107 138.237 43.144 137.576 43.144C136.829 43.144 136.146 42.952 135.528 42.568C134.92 42.184 134.434 41.6453 134.072 40.952C133.72 40.248 133.544 39.4427 133.544 38.536ZM140.52 38.568C140.52 38.024 140.413 37.56 140.2 37.176C139.986 36.7813 139.698 36.4827 139.336 36.28C138.973 36.0667 138.584 35.96 138.168 35.96C137.752 35.96 137.368 36.0613 137.016 36.264C136.664 36.4667 136.376 36.7653 136.152 37.16C135.938 37.544 135.832 38.0027 135.832 38.536C135.832 39.0693 135.938 39.5387 136.152 39.944C136.376 40.3387 136.664 40.6427 137.016 40.856C137.378 41.0693 137.762 41.176 138.168 41.176C138.584 41.176 138.973 41.0747 139.336 40.872C139.698 40.6587 139.986 40.36 140.2 39.976C140.413 39.5813 140.52 39.112 140.52 38.568Z" fill="#EE4B1F"/>
</svg>
